<mxfile host="app.diagrams.net" modified="2023-05-26T08:16:35.673Z" agent="Mozilla/5.0 (Windows NT 10.0; Win64; x64) AppleWebKit/537.36 (KHTML, like Gecko) Chrome/113.0.0.0 Safari/537.36" version="21.3.3" etag="dN317vW6yCP1LDI58DeX" type="github">
  <diagram name="페이지-1" id="wU8h6Y0WBPZWrGO6Yp1V">
    <mxGraphModel>
      <root>
        <mxCell id="0" />
        <mxCell id="1" parent="0" />
      </root>
    </mxGraphModel>
  </diagram>
</mxfile>
